<?xml version="1.0" encoding="iso-8859-1"?>
<!-- Generator: Adobe Illustrator 19.0.0, SVG Export Plug-In . SVG Version: 6.00 Build 0)  -->
<svg version="1.1" id="Layer_1" xmlns="http://www.w3.org/2000/svg" xmlns:xlink="http://www.w3.org/1999/xlink" x="0px" y="0px"
	 viewBox="0 0 512.003 512.003" style="enable-background:new 0 0 512.003 512.003;" xml:space="preserve">
<g>
	<g>
		<path d="M496.949,230.454L312.544,129.099c-3.305-1.818-7.431-1.107-9.936,1.714l-31.255,35.16
			c-2.966,3.337-2.667,8.446,0.672,11.413c3.337,2.967,8.447,2.666,11.413-0.672l26.97-30.341l136.492,75.019
			c-22.688-4.371-45.808-6.59-69.041-6.59c-32.539,0-64.867,4.332-96.086,12.872c-3.514,0.963-5.951,4.154-5.951,7.797v18.396
			h-39.646v-18.396c0-3.643-2.437-6.836-5.951-7.797c-31.219-8.541-63.548-12.872-96.091-12.872
			c-23.417,0-46.722,2.256-69.587,6.697l136.688-75.127l26.97,30.341c2.965,3.337,8.073,3.637,11.413,0.672
			c3.338-2.966,3.638-8.076,0.672-11.413l-31.255-35.16c-2.506-2.821-6.632-3.531-9.936-1.714L13.21,231.269
			C5.389,235.149,0,243.215,0,252.521v31.206c0,13.075,10.637,23.711,23.712,23.711h11.633
			c11.377,43.93,51.356,76.467,98.793,76.467c21.962,0,42.887-6.872,60.514-19.873c3.593-2.651,4.357-7.711,1.707-11.305
			c-2.651-3.592-7.711-4.358-11.305-1.707c-14.826,10.937-32.433,16.717-50.915,16.717c-42.016,0-77.058-30.343-84.422-70.26
			c-0.217-1.177-0.415-2.356-0.582-3.538c-0.018-0.133-0.032-0.266-0.051-0.399c-0.164-1.192-0.307-2.385-0.421-3.578
			c-0.032-0.337-0.05-0.679-0.078-1.018c-0.083-0.991-0.163-1.98-0.211-2.967c-0.065-1.362-0.105-2.73-0.105-4.109v-40.168
			c27.978-7.121,56.833-10.728,85.867-10.728c29.038,0,57.896,3.608,85.874,10.728v12.17h-5.432c-4.466,0-8.084,3.619-8.084,8.084
			c0,4.466,3.618,8.084,8.084,8.084h5.432v11.829c0,19.335-6.274,37.592-18.144,52.795c-2.749,3.519-2.123,8.599,1.397,11.346
			c3.517,2.748,8.598,2.125,11.346-1.397c14.111-18.073,21.57-39.77,21.57-62.745v-11.829h39.646v11.829
			c0,56.264,45.774,102.038,102.038,102.038c21.962,0,42.887-6.872,60.514-19.873c3.593-2.651,4.357-7.711,1.707-11.305
			c-2.651-3.592-7.712-4.358-11.305-1.707c-14.826,10.937-32.433,16.717-50.915,16.717c-47.349,0-85.869-38.521-85.869-85.869
			v-11.829h5.432c4.466,0,8.084-3.618,8.084-8.084c0-4.466-3.619-8.084-8.084-8.084h-5.432v-12.171
			c27.978-7.121,56.833-10.728,85.867-10.728c29.038,0,57.896,3.608,85.874,10.728v40.168c0,1.315-0.032,2.635-0.095,3.96
			c-0.001,0.031-0.004,0.063-0.005,0.095c-0.192,3.969-0.663,7.968-1.41,11.935c-0.025,0.134-0.034,0.268-0.053,0.403
			c-2.534,13.204-8.132,25.578-16.58,36.402c-2.749,3.519-2.123,8.599,1.397,11.346c3.517,2.748,8.598,2.125,11.346-1.397
			c8.735-11.188,14.914-23.765,18.359-37.174h11.598c13.075,0,23.711-10.637,23.711-23.712v-31.205
			C512,242.501,505.751,233.921,496.949,230.454z M23.712,291.271v-0.001c-4.159,0-7.543-3.385-7.543-7.543v-31.206
			c0-4.159,3.385-7.543,7.543-7.543h8.387v36.891c0,1.548,0.041,3.086,0.109,4.618c0.001,0.036,0.002,0.071,0.004,0.107
			c0.072,1.569,0.182,3.128,0.324,4.678H23.712z M495.833,283.727h-0.001c0,4.159-3.385,7.543-7.543,7.543h-8.823
			c0.139-1.537,0.249-3.081,0.319-4.632c0.001-0.032,0.004-0.066,0.006-0.098c0.069-1.551,0.111-3.108,0.111-4.672v-36.891h8.387
			c0.71,0,1.395,0.106,2.046,0.29l0.365,0.201c0.494,0.272,1.006,0.47,1.524,0.631c2.16,1.328,3.608,3.707,3.608,6.422V283.727z"/>
	</g>
</g>
<g>
</g>
<g>
</g>
<g>
</g>
<g>
</g>
<g>
</g>
<g>
</g>
<g>
</g>
<g>
</g>
<g>
</g>
<g>
</g>
<g>
</g>
<g>
</g>
<g>
</g>
<g>
</g>
<g>
</g>
</svg>
